<svg width="100" height="100" viewBox="0 0 100 100" fill="none" xmlns="http://www.w3.org/2000/svg">
<g clip-path="url(#clip0_5_2)">
<path d="M34.0206 44.0523L32.0088 50H26.875L35.4867 26.875H41.4252L50 50H44.6026L42.5907 44.0523H34.0206ZM41.5779 40.6483L38.4375 31.2965H38.2109L35.0705 40.6483H41.5779Z" fill="white"/>
<path d="M13 22.25C13 19.7967 13.9746 17.444 15.7093 15.7093C17.444 13.9746 19.7967 13 22.25 13H54.625C57.0783 13 59.431 13.9746 61.1657 15.7093C62.9004 17.444 63.875 19.7967 63.875 22.25V36.125H77.75C80.2033 36.125 82.556 37.0996 84.2907 38.8343C86.0254 40.569 87 42.9217 87 45.375V77.75C87 80.2033 86.0254 82.556 84.2907 84.2907C82.556 86.0254 80.2033 87 77.75 87H45.375C42.9217 87 40.569 86.0254 38.8343 84.2907C37.0996 82.556 36.125 80.2033 36.125 77.75V63.875H22.25C19.7967 63.875 17.444 62.9004 15.7093 61.1657C13.9746 59.431 13 57.0783 13 54.625V22.25ZM22.25 17.625C21.0234 17.625 19.847 18.1123 18.9796 18.9796C18.1123 19.847 17.625 21.0234 17.625 22.25V54.625C17.625 55.8516 18.1123 57.028 18.9796 57.8954C19.847 58.7627 21.0234 59.25 22.25 59.25H54.625C55.8516 59.25 57.028 58.7627 57.8954 57.8954C58.7627 57.028 59.25 55.8516 59.25 54.625V22.25C59.25 21.0234 58.7627 19.847 57.8954 18.9796C57.028 18.1123 55.8516 17.625 54.625 17.625H22.25ZM55.2632 63.8519C56.1543 65.2425 57.1256 66.5467 58.177 67.7646C54.7175 70.424 50.4394 72.3943 45.375 73.7401C46.1983 74.7438 47.4609 76.677 47.9419 77.75C53.145 76.0896 57.5619 73.8465 61.2896 70.8402C64.8832 73.9159 69.3325 76.2284 74.8409 77.6482C75.456 76.4735 76.7556 74.5356 77.75 73.532C72.5469 72.3619 68.2364 70.3222 64.7075 67.5935C67.8571 64.1386 70.3592 59.9576 72.2046 54.8424H77.75V50H63.875V54.8424H67.4131C65.9424 58.7459 63.9906 61.9926 61.5301 64.6936C60.8501 63.97 60.2094 63.2104 59.6108 62.4181C58.3046 63.2528 56.8097 63.7458 55.2632 63.8519Z" fill="#1540EF"/>
</g>
<defs>
<clipPath id="clip0_5_2">
<rect width="74" height="74" fill="white" transform="translate(13 13)"/>
</clipPath>
</defs>
</svg>
